<svg width="28" height="55" viewBox="0 0 28 55" fill="none" xmlns="http://www.w3.org/2000/svg">
<path d="M1.0554 0.995226C1.05276 0.719096 0.826776 0.497386 0.550646 0.500023C0.274516 0.502659 0.0528061 0.728644 0.0554428 1.00477L1.0554 0.995226ZM26.7334 53.6822C26.998 53.6031 27.1484 53.3245 27.0693 53.0599L25.7811 48.7483C25.702 48.4837 25.4235 48.3333 25.1589 48.4123C24.8943 48.4914 24.7439 48.77 24.8229 49.0346L25.968 52.8671L22.1354 54.0122C21.8709 54.0913 21.7204 54.3699 21.7995 54.6345C21.8786 54.899 22.1571 55.0494 22.4217 54.9704L26.7334 53.6822ZM0.0554428 1.00477C0.199844 16.1277 2.02171 26.7404 6.20348 34.8552C10.394 42.987 16.9236 48.5522 26.3527 53.6431L26.8278 52.7631C17.5022 47.7282 11.1585 42.2876 7.09239 34.3972C3.01749 26.4897 1.19928 16.0638 1.0554 0.995226L0.0554428 1.00477Z" fill="#FFF8E8"/>
</svg>
