<svg width="88" height="49" viewBox="0 0 88 49" fill="none" xmlns="http://www.w3.org/2000/svg">
<path d="M86.7586 1.25578C87.0342 1.23892 87.244 1.00181 87.2271 0.726178C87.2102 0.450551 86.9731 0.240783 86.6975 0.257647L86.7586 1.25578ZM2.29987 48.349C2.39245 48.6091 2.67841 48.745 2.93857 48.6524L7.17811 47.1436C7.43827 47.0511 7.57411 46.7651 7.48153 46.5049C7.38895 46.2448 7.103 46.1089 6.84284 46.2015L3.07435 47.5426L1.73326 43.7741C1.64067 43.514 1.35472 43.3781 1.09456 43.4707C0.834399 43.5633 0.698554 43.8493 0.791131 44.1094L2.29987 48.349ZM86.6975 0.257647C61.7631 1.78328 44.46 5.69052 31.4865 13.2466C18.4964 20.8123 9.90335 32.0025 2.31931 47.9668L3.22256 48.3959C10.7561 32.5379 19.2343 21.5398 31.9897 14.1107C44.7617 6.67206 61.8784 2.77809 86.7586 1.25578L86.6975 0.257647Z" fill="#FFB910"/>
</svg>
