<svg width="135" height="67" viewBox="0 0 135 67" fill="none" xmlns="http://www.w3.org/2000/svg">
<path d="M133.576 65.8779C133.714 66.1175 134.019 66.2004 134.259 66.0631C134.498 65.9258 134.581 65.6203 134.444 65.3807L133.576 65.8779ZM64.392 30.5892L64.6005 31.0436L64.392 30.5892ZM2.51507 0.333605C2.25473 0.241552 1.96904 0.377976 1.877 0.638329L0.37688 4.88093C0.284822 5.14127 0.421259 5.42695 0.681604 5.51901C0.941949 5.61106 1.22762 5.47463 1.31968 5.21428L2.65311 1.44308L6.42432 2.77651C6.68466 2.86857 6.97034 2.73214 7.0624 2.47179C7.15445 2.21145 7.01802 1.92576 6.75767 1.83371L2.51507 0.333605ZM134.01 65.6293C134.444 65.3807 134.444 65.3804 134.443 65.3798C134.443 65.3794 134.443 65.3786 134.442 65.3777C134.441 65.3759 134.44 65.3733 134.438 65.3699C134.434 65.3631 134.428 65.3531 134.42 65.3399C134.405 65.3137 134.383 65.275 134.353 65.2242C134.293 65.1227 134.204 64.9732 134.087 64.7794C133.853 64.3918 133.505 63.827 133.048 63.1155C132.136 61.6925 130.789 59.6818 129.05 57.3262C125.575 52.6168 120.526 46.5199 114.24 40.9842C101.682 29.9237 84.0638 21.0119 64.1834 30.1347L64.6005 31.0436C83.9441 22.167 101.135 30.7753 113.58 41.7347C119.795 47.209 124.797 53.247 128.246 57.92C129.97 60.2557 131.304 62.2481 132.207 63.6554C132.658 64.359 133.001 64.9162 133.231 65.2967C133.346 65.487 133.433 65.6331 133.491 65.7312C133.52 65.7803 133.541 65.8174 133.555 65.842C133.563 65.8543 133.568 65.8635 133.571 65.8695C133.573 65.8725 133.574 65.8747 133.575 65.8761C133.576 65.8768 133.576 65.8773 133.576 65.8776C133.576 65.8779 133.576 65.8779 134.01 65.6293ZM64.1834 30.1347C54.4786 34.5881 45.8149 34.9639 38.2734 33.0443C30.7216 31.1221 24.2628 26.8895 18.9985 22.0778C13.7348 17.2666 9.68263 11.8921 6.94498 7.71582C5.57687 5.62877 4.53879 3.84367 3.84345 2.58175C3.49581 1.95085 3.23395 1.45091 3.05941 1.1096C2.97216 0.93896 2.90674 0.807984 2.86337 0.720147C2.84169 0.676232 2.82551 0.643102 2.81487 0.621188C2.80955 0.61023 2.80561 0.602074 2.80306 0.596781C2.80179 0.594138 2.80086 0.592203 2.80028 0.590994C2.79998 0.590386 2.79982 0.590027 2.79967 0.589718C2.79959 0.589538 2.79959 0.589536 2.34839 0.805004C1.89719 1.02047 1.89737 1.02084 1.89763 1.02138C1.89783 1.0218 1.89819 1.02253 1.89859 1.02338C1.8994 1.02507 1.90056 1.02748 1.90206 1.03061C1.90509 1.03688 1.9095 1.04601 1.91529 1.05795C1.92688 1.08183 1.94404 1.11697 1.96673 1.16291C2.0121 1.25479 2.07961 1.38994 2.16907 1.56488C2.34796 1.91474 2.61466 2.42382 2.96761 3.06435C3.67343 4.34528 4.72458 6.15265 6.10865 8.26406C8.87544 12.4848 12.9796 17.9311 18.3238 22.8159C23.6674 27.7001 30.268 32.0385 38.0267 34.0134C45.7956 35.9909 54.6933 35.5899 64.6005 31.0436L64.1834 30.1347Z" fill="#FFF8E8"/>
</svg>
