<svg width="76" height="96" viewBox="0 0 76 96" fill="none" xmlns="http://www.w3.org/2000/svg">
<path fill-rule="evenodd" clip-rule="evenodd" d="M49.0875 1.21221C45.6247 0.514095 41.817 0.165039 37.6645 0.165039C12.7241 0.165039 0.253906 12.8186 0.253906 38.1257V57.9472C0.253906 83.3157 12.7241 96 37.6645 96C62.6663 95.9386 75.1672 83.2543 75.1672 57.9472V38.1257C75.1672 33.6441 74.7751 29.5594 73.9911 25.8714H49.0878C49.0878 25.8848 49.0852 30.032 49.0878 38.1262V57.9456C49.0878 66.1151 45.2817 70.2015 37.6645 70.2015C30.1086 70.2015 26.3307 66.1167 26.3307 57.9472V38.1257C26.3307 29.9561 30.0779 25.8714 37.5723 25.8714H49.0875V1.21221Z" fill="#FFF8E8"/>
<path fill-rule="evenodd" clip-rule="evenodd" d="M44.154 48.0749C44.154 51.6306 41.2715 54.5131 37.7158 54.5131C34.1601 54.5131 31.2776 51.6306 31.2776 48.0749C31.2776 44.5192 34.1601 41.6367 37.7158 41.6367C41.2715 41.6367 44.154 44.5192 44.154 48.0749ZM41.4616 46.5923C41.4616 47.6185 40.6257 48.4505 39.5946 48.4505C38.5635 48.4505 37.7276 47.6185 37.7276 46.5923C37.7276 45.566 38.5635 44.734 39.5946 44.734C40.6257 44.734 41.4616 45.566 41.4616 46.5923ZM41.3408 44.5414C41.6797 44.5414 41.9544 44.2667 41.9544 43.9278C41.9544 43.5889 41.6797 43.3142 41.3408 43.3142C41.0019 43.3142 40.7272 43.5889 40.7272 43.9278C40.7272 44.2667 41.0019 44.5414 41.3408 44.5414Z" fill="#FFF8E8"/>
</svg>
