<svg width="30" height="32" viewBox="0 0 30 32" fill="none" xmlns="http://www.w3.org/2000/svg">
<g filter="url(#filter0_d_517_28507)">
<path d="M25 12.0108V16.6037C25 22.2976 21.0809 24.637 16.2946 21.7815L12.4422 19.4764L8.58974 17.1714C3.80342 14.3159 3.80342 9.65416 8.58974 6.79864L12.4422 4.49359L16.2946 2.18853C21.0809 -0.61538 25 1.70688 25 7.41791V12.0108Z" fill="#FFB910"/>
<path d="M25 12.0108V16.6037C25 22.2976 21.0809 24.637 16.2946 21.7815L12.4422 19.4764L8.58974 17.1714C3.80342 14.3159 3.80342 9.65416 8.58974 6.79864L12.4422 4.49359L16.2946 2.18853C21.0809 -0.61538 25 1.70688 25 7.41791V12.0108Z" stroke="#FFF8E8" stroke-width="2" stroke-miterlimit="10" stroke-linecap="round" stroke-linejoin="round"/>
</g>
<defs>
<filter id="filter0_d_517_28507" x="0" y="-0.000488281" width="30" height="32.0015" filterUnits="userSpaceOnUse" color-interpolation-filters="sRGB">
<feFlood flood-opacity="0" result="BackgroundImageFix"/>
<feColorMatrix in="SourceAlpha" type="matrix" values="0 0 0 0 0 0 0 0 0 0 0 0 0 0 0 0 0 0 127 0" result="hardAlpha"/>
<feOffset dy="4"/>
<feGaussianBlur stdDeviation="2"/>
<feComposite in2="hardAlpha" operator="out"/>
<feColorMatrix type="matrix" values="0 0 0 0 0 0 0 0 0 0 0 0 0 0 0 0 0 0 0.5 0"/>
<feBlend mode="normal" in2="BackgroundImageFix" result="effect1_dropShadow_517_28507"/>
<feBlend mode="normal" in="SourceGraphic" in2="effect1_dropShadow_517_28507" result="shape"/>
</filter>
</defs>
</svg>
